<?xml version="1.0" encoding="UTF-8"?>
<svg version="1.1" xmlns="http://www.w3.org/2000/svg" width="554" height="554">
<path d="M0 0 C182.82 0 365.64 0 554 0 C554 182.82 554 365.64 554 554 C371.18 554 188.36 554 0 554 C0 371.18 0 188.36 0 0 Z " fill="#FEFEFE" transform="translate(0,0)"/>
<path d="M0 0 C1.09344727 -0.00555908 2.18689453 -0.01111816 3.31347656 -0.0168457 C21.00494913 0.14058526 21.00494913 0.14058526 27.625 5.3125 C30.10729666 9.03594499 29.95124053 10.90116066 29.625 15.3125 C28.69921875 17.92578125 28.69921875 17.92578125 27.3125 20.625 C24.10636204 27.20324071 21.21176754 33.87926967 18.375 40.625 C17.90384766 41.74197266 17.43269531 42.85894531 16.94726562 44.00976562 C14.58284175 49.6248724 12.23433486 55.24634824 9.90234375 60.875 C1.97056108 80.01935854 1.97056108 80.01935854 -2.21875 88.82421875 C-2.6003125 89.64535156 -2.981875 90.46648437 -3.375 91.3125 C-3.7771875 92.14394531 -4.179375 92.97539062 -4.59375 93.83203125 C-5.55173598 96.87363675 -5.41773629 98.30586578 -4.375 101.3125 C-2.64711375 103.88472329 -2.64711375 103.88472329 -0.4375 106.5 C11.35266889 121.52199184 18.80908253 138.95635747 23.625 157.3125 C24.45732147 157.32463028 24.45732147 157.32463028 25.30645752 157.33700562 C31.08165407 157.42306256 36.85650784 157.52256667 42.63134766 157.62988281 C44.78656253 157.66816602 46.94184116 157.70302004 49.09716797 157.734375 C52.19521876 157.7800395 55.29283091 157.83803212 58.390625 157.8984375 C59.35429993 157.90998871 60.31797485 157.92153992 61.31085205 157.93344116 C62.66179962 157.9632457 62.66179962 157.9632457 64.04003906 157.99365234 C64.83057678 158.00697601 65.6211145 158.02029968 66.43560791 158.0340271 C68.95853058 158.35492238 70.50928922 158.89691031 72.625 160.3125 C74.45673112 163.28631641 74.87696109 165.53948505 74.88569641 169.00509644 C74.89278122 169.94430939 74.89986603 170.88352234 74.90716553 171.85119629 C74.90468811 172.87467163 74.90221069 173.89814697 74.8996582 174.95263672 C74.90476913 176.03598297 74.90988007 177.11932922 74.91514587 178.23550415 C74.92905983 181.82112128 74.92808361 185.40654656 74.92578125 188.9921875 C74.92966738 191.4831652 74.93400188 193.97414223 74.93876648 196.46511841 C74.94623273 201.68884427 74.94593459 206.91250255 74.94067383 212.13623047 C74.93530389 217.50023597 74.94233905 222.86405267 74.96118164 228.22802734 C74.98363831 234.70359383 74.99143438 241.17900259 74.98750877 247.65460587 C74.98802228 250.12255527 74.99326549 252.59050838 75.00332069 255.05843735 C75.01565771 258.51033247 75.00890913 261.96168773 74.99731445 265.41357422 C75.00495819 266.4330011 75.01260193 267.45242798 75.02047729 268.50274658 C74.98130898 273.77885642 74.87537181 277.91312155 71.625 282.3125 C67.20235366 285.31352322 63.60528612 285.6808173 58.33447266 285.65307617 C57.63133942 285.65351425 56.92820618 285.65395233 56.20376587 285.65440369 C53.89857417 285.65232728 51.59412585 285.62905188 49.2890625 285.60546875 C47.68338417 285.59986868 46.07770069 285.59560052 44.47201538 285.59260559 C40.26004716 285.5811891 36.0483927 285.55174979 31.83654785 285.51849365 C27.53300215 285.48772357 23.22940541 285.47408547 18.92578125 285.45898438 C10.49204403 285.4268767 2.05856112 285.37571945 -6.375 285.3125 C-6.65859375 285.91755371 -6.9421875 286.52260742 -7.234375 287.14599609 C-8.82016712 290.15805074 -11.06309799 292.4748304 -13.375 294.9375 C-13.86701904 295.46529053 -14.35903809 295.99308105 -14.8659668 296.53686523 C-16.36283396 298.13466099 -17.86822105 299.72405554 -19.375 301.3125 C-20.18582031 302.17746094 -20.99664062 303.04242188 -21.83203125 303.93359375 C-27.35646085 309.659578 -33.29484587 314.63733524 -39.58984375 319.4765625 C-40.13152695 319.90320694 -40.67321014 320.32985138 -41.23130798 320.76942444 C-43.375 322.3125 -43.375 322.3125 -46.112854 323.8296814 C-52.14073822 327.43639536 -52.14073822 327.43639536 -55.34107971 333.44595337 C-55.64363616 337.26233363 -55.61151622 340.9950597 -55.45703125 344.8125 C-55.44368902 346.21675447 -55.43611631 347.62107436 -55.43400574 349.02539062 C-55.41708378 352.70654671 -55.33986188 356.38361522 -55.24414062 360.06347656 C-55.09588482 365.95025447 -55.01698722 371.83688841 -54.98187828 377.7253418 C-54.95753976 379.76978515 -54.89326434 381.8101362 -54.8249054 383.85351562 C-54.73823766 390.67783982 -54.85166873 395.67625503 -59.64445496 400.84335327 C-66.43910596 406.61167425 -74.06943506 405.75015502 -82.59375 405.7109375 C-83.97945305 405.71296182 -85.36515506 405.71587624 -86.75085449 405.71963501 C-89.64569305 405.72404157 -92.54025264 405.71768166 -95.43505859 405.70361328 C-99.13034017 405.68652198 -102.82496789 405.69637221 -106.52022552 405.71433067 C-109.37885389 405.725214 -112.23732935 405.72170147 -115.09596252 405.7139473 C-117.11602202 405.71099627 -119.13608766 405.72004607 -121.15612793 405.7293396 C-128.89251304 405.67025392 -134.51537085 405.44192904 -140.6875 400.4375 C-143.97061185 396.303211 -144.62363996 392.55489659 -144.5703125 387.35546875 C-144.56386719 386.24365234 -144.55742187 385.13183594 -144.55078125 383.98632812 C-144.53402344 382.83583984 -144.51726562 381.68535156 -144.5 380.5 C-144.49097656 379.33017578 -144.48195313 378.16035156 -144.47265625 376.95507812 C-144.44913732 374.07400947 -144.41626852 371.19336011 -144.375 368.3125 C-145.23601318 368.61663818 -146.09702637 368.92077637 -146.98413086 369.23413086 C-152.52627473 370.99665152 -158.21871607 371.86226738 -163.9375 372.875 C-165.13697266 373.09607422 -166.33644531 373.31714844 -167.57226562 373.54492188 C-168.76658203 373.75826172 -169.96089844 373.97160156 -171.19140625 374.19140625 C-172.25818604 374.3829126 -173.32496582 374.57441895 -174.42407227 374.77172852 C-184.34277883 376.12932198 -194.26897458 376.47714221 -204.26953125 376.515625 C-205.45939133 376.52132507 -206.6492514 376.52702515 -207.87516785 376.53289795 C-210.38023001 376.54227925 -212.88530413 376.54885429 -215.39038086 376.55273438 C-219.1400423 376.56237795 -222.88913989 376.59344368 -226.63867188 376.625 C-249.46528302 376.72513735 -271.27447763 373.95216036 -293.5625 369.1875 C-294.41908203 369.00574219 -295.27566406 368.82398438 -296.15820312 368.63671875 C-298.23077068 368.19673234 -300.30293087 367.75482771 -302.375 367.3125 C-302.34881592 368.05822266 -302.32263184 368.80394531 -302.2956543 369.57226562 C-302.19104449 372.98545858 -302.12647031 376.39831328 -302.0625 379.8125 C-301.9996582 381.57207031 -301.9996582 381.57207031 -301.93554688 383.3671875 C-301.7763307 394.70337928 -301.7763307 394.70337928 -305.68710327 399.60446167 C-310.44051681 404.41459749 -316.43402798 405.55593325 -322.99291992 405.79833984 C-325.53041757 405.8111251 -328.06809613 405.80168497 -330.60546875 405.7734375 C-331.96828537 405.77104746 -333.33110533 405.77014894 -334.69392395 405.7706604 C-337.534037 405.76755093 -340.37363859 405.75112595 -343.21362305 405.72412109 C-346.84159817 405.69004602 -350.46901621 405.68249645 -354.09713268 405.68401146 C-356.90510812 405.68346615 -359.71296347 405.67247484 -362.52089882 405.65800858 C-364.50498121 405.64861731 -366.48908861 405.6450979 -368.47319031 405.64169312 C-369.68497452 405.62893341 -370.89675873 405.61617371 -372.14526367 405.60302734 C-373.73669441 405.59159195 -373.73669441 405.59159195 -375.36027527 405.57992554 C-381.65177837 405.02182861 -385.31451133 403.14118923 -389.375 398.3125 C-391.99996058 393.87721331 -392.72685464 390.77136331 -392.60107422 385.63964844 C-392.56782547 383.67665802 -392.56782547 383.67665802 -392.53390503 381.67401123 C-392.51612881 380.98155052 -392.49835258 380.28908981 -392.48003769 379.57564545 C-392.42889146 377.38782386 -392.40537701 375.20135529 -392.39065552 373.01300049 C-392.34866422 366.79504802 -392.29571138 360.57889754 -392.13183594 354.36279297 C-392.0333148 350.54889962 -391.99938651 346.73893397 -392.0062294 342.92383575 C-391.99697197 341.48038652 -391.96442274 340.0368725 -391.90700912 338.59453583 C-391.48747137 330.70027559 -391.48747137 330.70027559 -394.66041756 323.73001099 C-398.21368285 320.37355711 -402.23167062 317.8732461 -406.375 315.3125 C-410.59830839 311.91563873 -414.45594717 308.05341406 -418.375 304.3125 C-419.22835937 303.51199219 -420.08171875 302.71148437 -420.9609375 301.88671875 C-441.63030782 281.96718363 -456.922475 255.94090226 -464.375 228.3125 C-464.70242188 227.12011719 -465.02984375 225.92773438 -465.3671875 224.69921875 C-467.91410267 214.96030029 -468.5883152 205.59720857 -468.61523438 195.56420898 C-468.62483701 193.41153754 -468.65587185 191.25986592 -468.6875 189.10742188 C-468.76324215 179.18036387 -467.54250271 169.98938127 -465.375 160.3125 C-465.19211426 159.45358154 -465.00922852 158.59466309 -464.82080078 157.7097168 C-454.80831923 112.76536432 -419.95150536 76.42449484 -382.3125 52.3125 C-375.01530177 47.72208151 -367.50343312 43.5746367 -359.875 39.5625 C-358.87718506 39.0365625 -357.87937012 38.510625 -356.85131836 37.96875 C-355.9206958 37.48921875 -354.99007324 37.0096875 -354.03125 36.515625 C-353.20431641 36.08926758 -352.37738281 35.66291016 -351.52539062 35.22363281 C-349.375 34.3125 -349.375 34.3125 -346.375 34.3125 C-346.11920166 34.88057373 -345.86340332 35.44864746 -345.59985352 36.03393555 C-334.0755546 61.43154952 -319.40168521 82.37591069 -295.375 97.3125 C-294.5190625 97.86550781 -293.663125 98.41851562 -292.78125 98.98828125 C-280.07181862 106.86184382 -266.10817808 111.90934674 -251.375 114.3125 C-250.35019531 114.49683594 -249.32539063 114.68117188 -248.26953125 114.87109375 C-215.52789051 118.58203197 -182.57517342 110.65588992 -156.375 90.3125 C-153.55835186 87.95702688 -150.86871353 85.48396804 -148.23046875 82.9296875 C-146.375 81.3125 -146.375 81.3125 -144.375 81.3125 C-144.1171875 80.73113281 -143.859375 80.14976562 -143.59375 79.55078125 C-142.27285509 77.12490694 -140.7883848 75.48788134 -138.875 73.5 C-126.45014077 59.69961189 -119.37596227 43.69118785 -113.375 26.3125 C-105.05147686 28.44987798 -97.50058381 31.83208158 -89.75 35.5 C-88.55503906 36.05880859 -87.36007812 36.61761719 -86.12890625 37.19335938 C-83.20801996 38.56033416 -80.29021191 39.93347635 -77.375 41.3125 C-77.07859619 40.37390137 -76.78219238 39.43530273 -76.47680664 38.46826172 C-71.5852173 24.45791743 -56.01282288 14.75033297 -43.375 8.3125 C-29.25117599 1.98816547 -15.29919269 0.06566639 0 0 Z " fill="#000000" transform="translate(475.375,123.6875)"/>
<path d="M0 0 C1.62459731 1.37200035 3.2282642 2.76908598 4.8125 4.1875 C5.70582031 4.98671875 6.59914063 5.7859375 7.51953125 6.609375 C24.60208322 22.76015141 36.53483338 46.05750588 37.7578125 69.76171875 C37.77585937 70.56222656 37.79390625 71.36273438 37.8125 72.1875 C37.85117187 72.97769531 37.88984375 73.76789063 37.9296875 74.58203125 C38.71139159 101.46396635 26.60477368 127.19783236 8.53125 146.5234375 C-11.02382673 165.68516499 -36.29703605 173.65558051 -63.19482422 173.54882812 C-79.69255901 173.27856443 -92.94568431 169.39464803 -107.1875 161.1875 C-108.20714844 160.60742188 -109.22679687 160.02734375 -110.27734375 159.4296875 C-125.37352002 150.32540167 -136.55103359 137.39004704 -145.1875 122.1875 C-145.58710938 121.51332031 -145.98671875 120.83914062 -146.3984375 120.14453125 C-158.08889205 98.9614276 -158.97741524 72.85258334 -152.66796875 50.0078125 C-145.33877572 25.39679782 -128.81348584 4.3826207 -106.42114258 -8.21679688 C-72.27168646 -26.58259917 -30.84452109 -23.81665552 0 0 Z " fill="#010101" transform="translate(304.1875,40.8125)"/>
<path d="M0 0 C4.29 0 8.58 0 13 0 C13 5.28 13 10.56 13 16 C15.660625 15.9071875 15.660625 15.9071875 18.375 15.8125 C25.57954367 15.80397391 31.95338116 16.96892077 38 21 C37.34654081 25.15102174 36.54453335 29.22663065 35.5625 33.3125 C35.31628906 34.36050781 35.07007813 35.40851563 34.81640625 36.48828125 C34.54699219 37.31714844 34.27757812 38.14601562 34 39 C32 40 32 40 30.08203125 39.4765625 C29.33308594 39.19554687 28.58414063 38.91453125 27.8125 38.625 C20.11145431 35.93516108 10.8612301 34.16471193 3.0625 37.375 C-0.00783433 38.81237436 -0.00783433 38.81237436 -2 41 C-2.56507117 45.08061989 -2.56507117 45.08061989 -2 49 C1.87846789 52.93180635 6.62224311 54.77288304 11.625 56.875 C36.45286619 67.69439126 36.45286619 67.69439126 42 79.6875 C44.36017567 87.46676324 44.30302196 96.22616763 40.75 103.5625 C39.86694766 105.0619767 38.9543332 106.54485054 38 108 C37.443125 108.9075 36.88625 109.815 36.3125 110.75 C30.27735109 116.62203678 22.44023641 121 14 121 C14 126.28 14 131.56 14 137 C9.71 137 5.42 137 1 137 C1 132.05 1 127.1 1 122 C-0.876875 122.0825 -2.75375 122.165 -4.6875 122.25 C-12.92054196 122.26803514 -21.07526682 120.61648879 -28 116 C-27.21085905 109.21338787 -25.58725189 102.63850633 -24 96 C-23.47792969 96.18175781 -22.95585937 96.36351562 -22.41796875 96.55078125 C-19.95306087 97.3925624 -17.47883106 98.20014463 -15 99 C-14.13375 99.28617187 -13.2675 99.57234375 -12.375 99.8671875 C-4.50732057 102.26865942 4.17325983 103.82658714 12.0625 100.6875 C14.62116078 99.21763104 16.18225075 98.25506284 18 96 C18.54718251 93.86391227 18.54718251 93.86391227 18.5 91.5625 C18.5309375 90.80066406 18.561875 90.03882813 18.59375 89.25390625 C17.70115657 85.86557461 15.88230717 84.90068017 13 83 C10.84625237 81.94867001 8.65446311 80.97299338 6.4375 80.0625 C5.82616211 79.80509033 5.21482422 79.54768066 4.58496094 79.2824707 C1.66868651 78.06030857 -1.26027391 76.90495439 -4.23046875 75.8203125 C-13.57834048 72.31334898 -20.99155959 67.05516602 -26.125 58.3125 C-29.19895833 51.25337427 -29.30210582 43.52310444 -27.18359375 36.1640625 C-23.23934883 27.23110361 -15.97004056 21.38712854 -7.140625 17.59375 C-5 17 -5 17 0 17 C0 11.39 0 5.78 0 0 Z " fill="#FAFAFA" transform="translate(238,49)"/>
</svg>
