<svg xmlns="http://www.w3.org/2000/svg" version="1.1" xmlns:xlink="http://www.w3.org/1999/xlink" viewBox="0 0 200 200"><rect width="200" height="200" fill="url('#gradient')"></rect><defs><linearGradient id="gradient" gradientTransform="rotate(134 0.5 0.5)"><stop offset="0%" stop-color="#00ffff"></stop><stop offset="100%" stop-color="#647e90"></stop></linearGradient></defs><g><g fill="#ffffff" transform="matrix(2.6189258312020463,0,0,2.6189258312020463,-1.639105745288738,114.05174610742827)" stroke="#2651d3" stroke-width="0"><path d="M8.41-3.78L8.41-3.78Q8.41-4.53 7.88-4.95Q7.34-5.37 6.01-5.82Q4.67-6.27 3.82-6.69L3.82-6.69Q1.05-8.05 1.05-10.42L1.05-10.42Q1.05-11.60 1.74-12.50Q2.43-13.41 3.69-13.91Q4.95-14.41 6.52-14.41L6.52-14.41Q8.06-14.41 9.27-13.87Q10.49-13.32 11.16-12.31Q11.84-11.30 11.84-10L11.84-10L8.42-10Q8.42-10.87 7.89-11.35Q7.35-11.83 6.45-11.83L6.45-11.83Q5.53-11.83 5.00-11.42Q4.46-11.02 4.46-10.39L4.46-10.39Q4.46-9.84 5.05-9.40Q5.63-8.96 7.11-8.48Q8.58-8.01 9.53-7.46L9.53-7.46Q11.84-6.13 11.84-3.80L11.84-3.80Q11.84-1.93 10.43-0.87Q9.02 0.20 6.57 0.20L6.57 0.20Q4.84 0.20 3.44-0.42Q2.04-1.04 1.33-2.12Q0.63-3.20 0.63-4.61L0.63-4.61L4.06-4.61Q4.06-3.47 4.65-2.92Q5.24-2.38 6.57-2.38L6.57-2.38Q7.42-2.38 7.92-2.75Q8.41-3.12 8.41-3.78ZM22.69 0L19.39 0Q19.22-0.32 19.08-0.95L19.08-0.95Q18.17 0.20 16.54 0.20L16.54 0.20Q15.05 0.20 14.00-0.71Q12.96-1.61 12.96-2.98L12.96-2.98Q12.96-4.70 14.23-5.58Q15.50-6.46 17.92-6.46L17.92-6.46L18.94-6.46L18.94-7.01Q18.94-8.47 17.68-8.47L17.68-8.47Q16.50-8.47 16.50-7.31L16.50-7.31L13.21-7.31Q13.21-8.85 14.52-9.80Q15.82-10.76 17.84-10.76Q19.86-10.76 21.04-9.78Q22.21-8.79 22.24-7.07L22.24-7.07L22.24-2.39Q22.26-0.94 22.69-0.17L22.69-0.17L22.69 0ZM17.33-2.15L17.33-2.15Q17.95-2.15 18.35-2.41Q18.76-2.68 18.94-3.01L18.94-3.01L18.94-4.70L17.98-4.70Q16.26-4.70 16.26-3.15L16.26-3.15Q16.26-2.71 16.56-2.43Q16.87-2.15 17.33-2.15ZM23.99-10.57L27.08-10.57L27.19-9.33Q28.28-10.76 30.21-10.76L30.21-10.76Q31.86-10.76 32.67-9.78Q33.49-8.79 33.52-6.81L33.52-6.81L33.52 0L30.21 0L30.21-6.67Q30.21-7.47 29.89-7.85Q29.57-8.22 28.72-8.22L28.72-8.22Q27.75-8.22 27.29-7.46L27.29-7.46L27.29 0L23.99 0L23.99-10.57ZM39.80-2.34L39.80-2.34Q40.50-2.34 40.88-2.72Q41.26-3.10 41.25-3.77L41.25-3.77L44.34-3.77Q44.34-2.03 43.09-0.92Q41.85 0.20 39.88 0.20L39.88 0.20Q37.58 0.20 36.25-1.25Q34.92-2.70 34.92-5.25L34.92-5.25L34.92-5.39Q34.92-6.99 35.51-8.22Q36.10-9.44 37.22-10.10Q38.33-10.76 39.85-10.76L39.85-10.76Q41.91-10.76 43.13-9.62Q44.34-8.48 44.34-6.52L44.34-6.52L41.25-6.52Q41.25-7.34 40.85-7.78Q40.45-8.22 39.78-8.22L39.78-8.22Q38.50-8.22 38.28-6.59L38.28-6.59Q38.21-6.07 38.21-5.17L38.21-5.17Q38.21-3.57 38.59-2.96Q38.97-2.34 39.80-2.34ZM48.95-15L48.95-9.43Q50-10.76 51.64-10.76L51.64-10.76Q53.39-10.76 54.28-9.73Q55.17-8.69 55.19-6.67L55.19-6.67L55.19 0L51.88 0L51.88-6.59Q51.88-7.43 51.54-7.83Q51.20-8.22 50.38-8.22L50.38-8.22Q49.37-8.22 48.95-7.58L48.95-7.58L48.95 0L45.65 0L45.65-15L48.95-15ZM66.26 0L62.97 0Q62.79-0.32 62.66-0.95L62.66-0.95Q61.75 0.20 60.12 0.20L60.12 0.20Q58.62 0.20 57.58-0.71Q56.53-1.61 56.53-2.98L56.53-2.98Q56.53-4.70 57.80-5.58Q59.07-6.46 61.49-6.46L61.49-6.46L62.51-6.46L62.51-7.01Q62.51-8.47 61.25-8.47L61.25-8.47Q60.08-8.47 60.08-7.31L60.08-7.31L56.79-7.31Q56.79-8.85 58.09-9.80Q59.39-10.76 61.42-10.76Q63.44-10.76 64.61-9.78Q65.78-8.79 65.81-7.07L65.81-7.07L65.81-2.39Q65.83-0.94 66.26-0.17L66.26-0.17L66.26 0ZM60.91-2.15L60.91-2.15Q61.52-2.15 61.93-2.41Q62.33-2.68 62.51-3.01L62.51-3.01L62.51-4.70L61.55-4.70Q59.83-4.70 59.83-3.15L59.83-3.15Q59.83-2.71 60.14-2.43Q60.44-2.15 60.91-2.15ZM70.04-10.57L71.71-4.61L73.47-10.57L76.99-10.57L72.69 1.77L72.50 2.22Q71.58 4.27 69.26 4.27L69.26 4.27Q68.61 4.27 67.90 4.07L67.90 4.07L67.90 1.72L68.33 1.72Q69.02 1.72 69.39 1.52Q69.76 1.32 69.93 0.80L69.93 0.80L70.20 0.10L66.52-10.57L70.04-10.57Z"></path></g></g></svg>